<svg id="Layer_1" data-name="Layer 1" xmlns="http://www.w3.org/2000/svg" viewBox="0 0 2000 2000"><defs><style>.cls-1,.cls-2{fill:#fff;}.cls-2{font-size:80px;font-family:Gotham-Book, Gotham;}.cls-3,.cls-4,.cls-5{font-family:Gotham-Bold, Gotham;font-weight:700;}.cls-3{letter-spacing:-0.07em;}.cls-4{letter-spacing:-0.11em;}</style></defs><title>Bills Pay</title><path class="cls-1" d="M700.43,949.62h0a14.52,14.52,0,0,0-14.53,14.53h0a40.5,40.5,0,0,0,40.51,40.5H843a39.72,39.72,0,0,1,39.72,39.72h0a45.47,45.47,0,0,1-45.34,45.34H713.86a28,28,0,0,0-28,28v13.21a14.52,14.52,0,0,0,14.53,14.52H851.07c49.5,0,90-40.5,90-90V1033a84.18,84.18,0,0,0-84.18-84.19l-156.46.84"/><rect class="cls-1" x="762.32" y="1027.25" width="85.06" height="40.03" rx="16.94"/><text class="cls-2" transform="translate(975.34 1083)">BILLS<tspan class="cls-3" x="231.28" y="0">P</tspan><tspan class="cls-4" x="279.12" y="0">A</tspan><tspan class="cls-5" x="333.52" y="0">Y</tspan></text></svg>