<svg id="Layer_1" data-name="Layer 1" xmlns="http://www.w3.org/2000/svg" viewBox="0 0 1989 682.97"><defs><style>.cls-1,.cls-2{fill:#fff;}.cls-2{font-size:226.68px;font-family:Gotham-Book, Gotham;}.cls-3,.cls-4,.cls-5{font-family:Gotham-Bold, Gotham;font-weight:700;}.cls-3{letter-spacing:-0.07em;}.cls-4{letter-spacing:-0.11em;}</style></defs><title>Bills Pay.svg white</title><path class="cls-1" d="M72.07,51.12h0A41.17,41.17,0,0,0,30.9,92.29h0A114.78,114.78,0,0,0,145.68,207.07H476A112.55,112.55,0,0,1,588.55,319.61h0c0,70.66-57.82,128.48-128.48,128.48H110.14A79.24,79.24,0,0,0,30.9,527.33v37.42a41.17,41.17,0,0,0,41.17,41.17H498.93c140.26,0,255-114.76,255-255V287.29c0-131.74-106.8-238.54-238.54-238.54L72.07,51.12"/><rect class="cls-1" x="247.45" y="271.1" width="241.02" height="113.42" rx="16.94"/><text class="cls-2" transform="translate(851.06 429.06)">BILLS<tspan class="cls-3" x="655.33" y="0">P</tspan><tspan class="cls-4" x="790.89" y="0">A</tspan><tspan class="cls-5" x="945.04" y="0">Y</tspan></text></svg>